<svg width="379" height="352" viewBox="0 0 379 352" fill="none" xmlns="http://www.w3.org/2000/svg">
<path fill-rule="evenodd" clip-rule="evenodd" d="M185.248 17.9826C144.301 5.16829 102.198 -16.2049 59.0935 22.8336C15.9888 61.8722 -11.1108 96.0697 6.38937 140.317C23.8895 184.564 95.3233 157.004 116.079 196.551C136.834 236.098 91.2298 271.989 110.891 307.186C130.552 342.382 145.67 364.939 208.854 342.56C272.039 320.182 266.213 263.24 314.262 229.895C362.31 196.551 414.296 146.633 342.954 57.5611C271.612 -31.5107 226.195 30.7969 185.248 17.9826Z" stroke="#9E96C6"/>
<path fill-rule="evenodd" clip-rule="evenodd" d="M190.037 40.6953C156.694 30.2905 122.408 12.9362 87.3069 44.6341C52.2057 76.3321 30.1379 104.099 44.3887 140.027C58.6395 175.954 116.81 153.576 133.711 185.687C150.613 217.797 113.476 246.94 129.487 275.518C145.497 304.096 157.808 322.412 209.261 304.241C260.713 286.071 255.969 239.836 295.096 212.761C334.224 185.687 376.557 145.155 318.461 72.8317C260.365 0.508389 223.381 51.1 190.037 40.6953Z" stroke="#9E96C6"/>
<path fill-rule="evenodd" clip-rule="evenodd" d="M200.203 54.0554C173.267 45.5856 145.571 31.4586 117.215 57.2618C88.86 83.0651 71.0332 105.669 82.5453 134.915C94.0573 164.161 141.048 145.945 154.702 172.084C168.355 198.223 138.355 221.946 151.289 245.21C164.223 268.473 174.167 283.383 215.732 268.591C257.296 253.8 253.464 216.163 285.071 194.123C316.679 172.084 350.876 139.089 303.946 80.2156C257.015 21.3419 227.139 62.5253 200.203 54.0554Z" stroke="#9E96C6"/>
<path fill-rule="evenodd" clip-rule="evenodd" d="M210.233 71.8141C188.402 64.9871 165.954 53.6002 142.973 74.3985C119.991 95.1969 105.543 113.416 114.873 136.989C124.204 160.563 162.289 145.88 173.355 166.949C184.421 188.018 160.107 207.14 170.589 225.891C181.071 244.642 189.132 256.66 222.819 244.737C256.506 232.815 253.4 202.478 279.017 184.713C304.635 166.949 332.351 140.354 294.315 92.9001C256.278 45.4459 232.064 78.6411 210.233 71.8141Z" stroke="#9E96C6"/>
<path fill-rule="evenodd" clip-rule="evenodd" d="M212.15 80.1206C194.338 74.5349 176.023 65.2184 157.271 82.2352C138.52 99.252 126.732 114.159 134.344 133.446C141.957 152.733 173.032 140.72 182.061 157.958C191.09 175.196 171.251 190.841 179.804 206.183C188.357 221.525 194.933 231.358 222.419 221.603C249.905 211.848 247.371 187.028 268.273 172.493C289.175 157.958 311.789 136.199 280.754 97.3728C249.72 58.5466 229.963 85.7063 212.15 80.1206Z" stroke="#9E96C6"/>
<path fill-rule="evenodd" clip-rule="evenodd" d="M218.511 89.726C204.174 85.1625 189.433 77.551 174.34 91.4536C159.248 105.356 149.76 117.535 155.887 133.292C162.014 149.05 187.026 139.235 194.293 153.319C201.56 167.402 185.592 180.184 192.476 192.718C199.36 205.253 204.654 213.286 226.777 205.316C248.899 197.347 246.86 177.068 263.683 165.194C280.507 153.319 298.708 135.542 273.729 103.821C248.75 72.1002 232.848 94.2895 218.511 89.726Z" stroke="#9E96C6"/>
</svg>
